<?xml version="1.0" standalone="no"?>
<!DOCTYPE svg PUBLIC "-//W3C//DTD SVG 20010904//EN"
 "http://www.w3.org/TR/2001/REC-SVG-20010904/DTD/svg10.dtd">
<svg version="1.0" xmlns="http://www.w3.org/2000/svg"
 width="2100.000000pt" height="1500.000000pt" viewBox="0 0 2100.000000 1500.000000"
 preserveAspectRatio="xMidYMid meet">

<g transform="translate(0.000000,1500.000000) scale(0.100000,-0.100000)"
fill="#000000" stroke="none">
<path d="M10415 13163 c-104 -31 -146 -76 -226 -243 -123 -256 -348 -602
-1010 -1555 -464 -667 -673 -974 -875 -1281 -960 -1461 -1469 -2483 -1653
-3320 -49 -225 -62 -327 -68 -541 -10 -348 27 -656 124 -1038 251 -989 896
-1846 1794 -2386 461 -276 996 -455 1569 -526 203 -24 657 -24 860 0 913 112
1710 497 2345 1132 661 661 1056 1521 1136 2473 18 213 7 511 -24 692 -154
881 -648 1908 -1655 3440 -202 308 -433 646 -891 1305 -718 1034 -946 1391
-1050 1642 -50 123 -110 181 -212 209 -67 17 -100 17 -164 -3z"/>
</g>
</svg>
